<?xml version="1.0" encoding="UTF-8" standalone="no"?>
<svg width="250" height="220" viewBox="0 0 653 575" version="1.1" xmlns="http://www.w3.org/2000/svg">
    <g transform="matrix(1,0,0,1,-7.78614,0)">
        <g transform="matrix(1,0,0,0.835201,7.78614,-42.9907)">
            <g transform="matrix(4.16667,0,0,4.98882,-191.107,2195.04)">
                <g transform="matrix(2.66418,0,0,2.66418,-520.324,532.513)">
                    <path d="M243.13,-333.715C243.236,-335.606 244.162,-337.272 245.559,-338.453C246.929,-339.613 248.773,-340.322 250.785,-340.322C252.795,-340.322 254.639,-339.613 256.01,-338.453C257.406,-337.272 258.332,-335.606 258.439,-333.717C258.545,-331.774 257.764,-329.969 256.394,-328.631C254.997,-327.27 253.01,-326.416 250.785,-326.416C248.56,-326.416 246.569,-327.27 245.173,-328.631C243.802,-329.969 243.023,-331.774 243.13,-333.715Z" style="fill:rgb(38,87,135);fill-rule:nonzero;"/>
                </g>
                <g transform="matrix(2.66418,0,0,2.66418,-520.324,532.513)">
                    <path d="M230.94,-329.894C230.953,-329.154 231.189,-327.716 231.543,-326.593C232.287,-324.216 233.549,-322.017 235.305,-320.079C237.107,-318.087 239.326,-316.487 241.889,-315.351C244.583,-314.158 247.502,-313.55 250.534,-313.555C253.561,-313.559 256.48,-314.179 259.174,-315.381C261.737,-316.528 263.954,-318.135 265.753,-320.128C267.508,-322.074 268.768,-324.277 269.514,-326.654C269.889,-327.855 270.126,-329.074 270.221,-330.297C270.314,-331.502 270.275,-332.709 270.104,-333.915C269.77,-336.265 268.957,-338.47 267.705,-340.48C266.56,-342.327 265.084,-343.944 263.329,-345.305L263.333,-345.308L245.622,-358.907C245.606,-358.919 245.593,-358.932 245.576,-358.943C244.414,-359.835 242.46,-359.832 241.182,-358.938C239.89,-358.034 239.742,-356.539 240.892,-355.596L240.887,-355.591L248.274,-349.584L225.759,-349.56C225.748,-349.56 225.737,-349.56 225.729,-349.56C223.868,-349.558 222.079,-348.337 221.725,-346.794C221.361,-345.222 222.625,-343.918 224.56,-343.911L224.557,-343.904L235.969,-343.926L215.605,-328.295C215.579,-328.276 215.551,-328.256 215.527,-328.237C213.606,-326.766 212.985,-324.32 214.195,-322.772C215.423,-321.198 218.034,-321.195 219.975,-322.763L231.089,-331.859C231.089,-331.859 230.927,-330.631 230.94,-329.894ZM259.499,-325.782C257.209,-323.449 254.003,-322.126 250.534,-322.119C247.06,-322.113 243.854,-323.424 241.564,-325.753C240.445,-326.888 239.623,-328.194 239.116,-329.585C238.619,-330.952 238.426,-332.403 238.554,-333.867C238.675,-335.298 239.101,-336.663 239.781,-337.898C240.449,-339.112 241.369,-340.209 242.505,-341.137C244.731,-342.951 247.565,-343.933 250.529,-343.937C253.496,-343.941 256.328,-342.968 258.556,-341.16C259.69,-340.236 260.609,-339.143 261.277,-337.931C261.96,-336.697 262.383,-335.337 262.509,-333.902C262.635,-332.44 262.442,-330.991 261.945,-329.623C261.437,-328.228 260.618,-326.922 259.499,-325.782Z" style="fill:rgb(232,125,13);fill-rule:nonzero;"/>
                </g>
            </g>
        </g>
    </g>
</svg>
