<?xml version="1.0" encoding="UTF-8" standalone="no"?>
<!DOCTYPE svg PUBLIC "-//W3C//DTD SVG 20010904//EN"
"http://www.w3.org/TR/2001/REC-SVG-20010904/DTD/svg10.dtd">
<!-- Created with Inkscape (http://www.inkscape.org/) -->
<svg
   version="1.0"
   x="0.0000000"
   y="0.0000000"
   width="225.00000"
   height="223.83838"
   viewBox="0 0 225 223.83838"
   id="svg1"
   xml:space="preserve"
   xmlns="http://www.w3.org/2000/svg"
   xmlns:xml="http://www.w3.org/XML/1998/namespace"
   xmlns:sodipodi="http://sodipodi.sourceforge.net/DTD/sodipodi-0.dtd"
   xmlns:inkscape="http://www.inkscape.org/namespaces/inkscape"
   xmlns:xlink="http://www.w3.org/1999/xlink"
   sodipodi:version="0.32"
   inkscape:version="0.39"
   xmlns:rdf="http://www.w3.org/1999/02/22-rdf-syntax-ns#"
   xmlns:cc="http://web.resource.org/cc/"
   xmlns:dc="http://purl.org/dc/elements/1.1/"
   sodipodi:docname="klogo-small.svg"
   sodipodi:docbase="/home/tackat/Documents/vingoni"><sodipodi:namedview
   id="base"
   pagecolor="#ffffff"
   bordercolor="#666666"
   borderopacity="1.0"
   inkscape:pageopacity="0.0"
   inkscape:pageshadow="2"
   inkscape:zoom="0.86831672"
   inkscape:cx="39.464359"
   inkscape:cy="76.392677"
   inkscape:window-width="640"
   inkscape:window-height="526"
   inkscape:window-x="289"
   inkscape:window-y="115" />
<defs
   id="defs84">
			
		
				
				
				
				
				
			</defs>


	
		<path
   d="M 23.296880,0.0000000 L 201.70313,0.0000000 C 214.51758,0.0000000 225.00000,10.483400 225.00000,23.296880 L 225.00000,200.54150 C 225.00000,213.35400 214.51758,223.83838 201.70312,223.83838 L 23.296880,223.83838 C 10.482420,223.83838 0.0000000,213.35400 0.0000000,200.54150 L 0.0000000,23.296880 C 0.0000000,10.483400 10.482420,0.0000000 23.296880,0.0000000 z "
   style="fill:#0068c6;fill-opacity:1.0000000;fill-rule:evenodd"
   id="path1065_2_" />

<path
   d="M 25.281250,9.3125000 C 16.499030,9.3125000 9.3125002,16.498530 9.3125000,25.281250 L 9.3125000,198.56250 C 9.3125000,207.34473 16.499019,214.59374 25.281250,214.59375 L 199.71875,214.59375 C 208.50098,214.59375 215.68750,207.34474 215.68750,198.56250 L 215.68750,25.281250 C 215.68750,16.498530 208.50097,9.3124997 199.71875,9.3125000 L 25.281250,9.3125000 z M 25.625000,16.218750 L 199.37500,16.218750 C 204.51562,16.218750 208.68751,20.433591 208.68750,25.625000 L 208.68750,198.31250 C 208.68750,203.45508 204.51562,207.62500 199.37500,207.62500 L 25.625000,207.62500 C 20.483890,207.62500 16.312499,203.45508 16.312500,198.31250 L 16.312500,25.625000 C 16.312500,20.433590 20.483891,16.218750 25.625000,16.218750 z "
   style="fill:#ffffff"
   id="path73" />

<polygon
   points="95.642090,148.22705 95.642090,30.529300 124.22656,27.792970 123.92383,79.494140 161.63672,29.010740 192.04688,36.002930 152.81445,86.487790 191.74219,140.01514 161.93945,149.44482 123.92383,93.786620 123.92383,143.96826 95.642090,148.22705 "
   style="fill:#ffffff"
   id="path5692_2_" />

<path
   d="M 163.82031,156.83643 L 161.35058,157.61768 C 160.99023,157.73096 160.59765,157.59620 160.38574,157.28272 C 160.38574,157.28272 155.51367,150.15284 149.22265,140.94581 C 141.70214,155.66456 126.40136,165.74659 108.73242,165.74659 C 83.629390,165.74659 63.277340,145.39405 63.277340,120.28956 C 63.277340,101.82179 74.292970,85.939460 90.105950,78.824720 L 90.105950,67.098630 C 87.228020,68.105470 84.446280,69.318840 81.803700,70.758300 C 81.801260,70.756350 81.797840,70.751460 81.790520,70.747560 L 60.378420,56.704590 C 59.801270,56.327640 59.041510,56.405760 58.556640,56.894040 L 47.337890,68.110840 C 46.866210,68.583980 46.777340,69.318850 47.125000,69.891600 L 60.259280,91.522950 C 57.929690,95.439450 56.063970,99.662600 54.729490,104.11719 L 30.615720,109.13282 C 29.944820,109.27198 29.461420,109.86622 29.461420,110.55470 L 29.461420,126.41749 C 29.461420,127.08839 29.919430,127.66944 30.565910,127.82569 L 53.970210,133.54639 C 55.218260,138.70557 57.152830,143.59717 59.708980,148.09229 L 46.162590,168.75049 C 45.784660,169.32764 45.863760,170.08838 46.352040,170.57471 L 57.567370,181.79151 C 58.039050,182.26221 58.775380,182.35303 59.350570,182.00733 L 80.578600,169.11475 C 84.748520,171.52100 89.245590,173.41455 93.998520,174.69873 L 98.951160,198.51318 C 99.090810,199.18798 99.687980,199.66845 100.37206,199.66845 L 116.23729,199.66845 C 116.90428,199.66845 117.48534,199.21337 117.64452,198.55907 L 123.47948,174.69481 C 128.37889,173.37254 133.01268,171.40184 137.28417,168.88622 L 158.20410,182.60400 C 158.77930,182.98291 159.53906,182.90673 160.02734,182.41845 L 171.24609,171.20165 C 171.72070,170.72704 171.80664,169.99364 171.45800,169.42235 L 163.82031,156.83643 z "
   style="fill:#ffffff"
   id="path79" />


	<metadata
   id="metadata921">
  <rdf:RDF
     id="RDF922">
    <cc:Work
       rdf:about=""
       id="Work923">
      <dc:format
         id="format924">image/svg+xml</dc:format>
      <dc:type
         id="type926"
         rdf:resource="http://purl.org/dc/dcmitype/StillImage" />
    </cc:Work>
  </rdf:RDF>
</metadata>
</svg>
