<?xml version="1.0" encoding="UTF-8" standalone="no"?>
<!-- Created with Inkscape (http://www.inkscape.org/) -->
<svg xmlns:dc="http://purl.org/dc/elements/1.1/" xmlns:cc="http://creativecommons.org/ns#" xmlns:rdf="http://www.w3.org/1999/02/22-rdf-syntax-ns#" xmlns:svg="http://www.w3.org/2000/svg" xmlns="http://www.w3.org/2000/svg" xmlns:sodipodi="http://sodipodi.sourceforge.net/DTD/sodipodi-0.dtd" xmlns:inkscape="http://www.inkscape.org/namespaces/inkscape" id="svg3637" sodipodi:version="0.32" inkscape:version="0.46" width="64" height="64" version="1.0" sodipodi:docname="Kdenlive_logo.svg" inkscape:output_extension="org.inkscape.output.svg.inkscape">
  <metadata id="metadata3642">
    <rdf:RDF>
      <cc:Work rdf:about="">
        <dc:format>image/svg+xml</dc:format>
        <dc:type rdf:resource="http://purl.org/dc/dcmitype/StillImage"/>
      </cc:Work>
    </rdf:RDF>
  </metadata>
  <defs id="defs3640">
    <inkscape:perspective sodipodi:type="inkscape:persp3d" inkscape:vp_x="0 : 526.18109 : 1" inkscape:vp_y="0 : 1000 : 0" inkscape:vp_z="744.09448 : 526.18109 : 1" inkscape:persp3d-origin="372.04724 : 350.78739 : 1" id="perspective3644"/>
  </defs>
  <sodipodi:namedview inkscape:window-height="968" inkscape:window-width="1280" inkscape:pageshadow="2" inkscape:pageopacity="0.0" guidetolerance="10.0" gridtolerance="10.0" objecttolerance="10.0" borderopacity="1.0" bordercolor="#666666" pagecolor="#ffffff" id="base" showgrid="false" inkscape:zoom="2.5522135" inkscape:cx="70.108094" inkscape:cy="-18.373586" inkscape:window-x="-4" inkscape:window-y="-4" inkscape:current-layer="svg3637">
    <inkscape:grid type="xygrid" id="grid4266"/>
  </sodipodi:namedview>
  <path style="fill: rgb(126, 127, 164); fill-rule: evenodd; stroke: rgb(0, 0, 0); stroke-width: 1px; stroke-linecap: butt; stroke-linejoin: round; stroke-opacity: 1; fill-opacity: 0.815686;" d="M 1.1082251,35.463203 L 31.168831,19.948052 L 43.359307,43.636364 L 13.298701,59.428571 L 1.1082251,35.463203 z" id="path3648"/>
  <path style="fill: rgb(126, 127, 164); fill-rule: evenodd; stroke: rgb(0, 0, 0); stroke-width: 1px; stroke-linecap: butt; stroke-linejoin: round; stroke-opacity: 1; fill-opacity: 0.815686;" d="M 50.839827,10.112554 L 35.324675,18.147186 L 47.792208,41.558442 L 63.584416,33.385281 L 50.839827,10.112554 z" id="path4167"/>
  <path sodipodi:type="arc" style="opacity: 1; fill: rgb(255, 255, 255); fill-opacity: 1; stroke: rgb(255, 255, 255); stroke-width: 0pt; stroke-linecap: butt; stroke-linejoin: round; stroke-miterlimit: 4; stroke-dasharray: none; stroke-dashoffset: 0pt; stroke-opacity: 1;" id="path4197" sodipodi:cx="14.683983" sodipodi:cy="53.402596" sodipodi:rx="1.6623377" sodipodi:ry="1.7316017" d="M 16.346321,53.402596 A 1.6623377,1.7316017 0 1 1 13.021645,53.402596 A 1.6623377,1.7316017 0 1 1 16.346321,53.402596 z" transform="matrix(1.05273, 0, 0, 1.01063, -0.894481, 1.56138)"/>
  <path sodipodi:type="arc" style="opacity: 1; fill: rgb(255, 255, 255); fill-opacity: 1; stroke: rgb(236, 236, 236); stroke-width: 0pt; stroke-linecap: butt; stroke-linejoin: round; stroke-miterlimit: 4; stroke-dasharray: none; stroke-dashoffset: 0pt; stroke-opacity: 1;" id="path4199" sodipodi:cx="14.683983" sodipodi:cy="53.402596" sodipodi:rx="1.6623377" sodipodi:ry="1.7316017" d="M 16.346321,53.402596 A 1.6623377,1.7316017 0 1 1 13.021645,53.402596 A 1.6623377,1.7316017 0 1 1 16.346321,53.402596 z" transform="matrix(1.05273, 0, 0, 1.01063, -10.6791, -17.3986)"/>
  <path sodipodi:type="arc" style="opacity: 1; fill: rgb(255, 255, 255); fill-opacity: 1; stroke: rgb(236, 236, 236); stroke-width: 0pt; stroke-linecap: butt; stroke-linejoin: round; stroke-miterlimit: 4; stroke-dasharray: none; stroke-dashoffset: 0pt; stroke-opacity: 1;" id="path4201" sodipodi:cx="14.683983" sodipodi:cy="53.402596" sodipodi:rx="1.6623377" sodipodi:ry="1.7316017" d="M 16.346321,53.402596 A 1.6623377,1.7316017 0 1 1 13.021645,53.402596 A 1.6623377,1.7316017 0 1 1 16.346321,53.402596 z" transform="matrix(1.05273, 0, 0, 1.01063, 7.67587, -2.57606)"/>
  <path sodipodi:type="arc" style="opacity: 1; fill: rgb(255, 255, 255); fill-opacity: 1; stroke: rgb(236, 236, 236); stroke-width: 0pt; stroke-linecap: butt; stroke-linejoin: round; stroke-miterlimit: 4; stroke-dasharray: none; stroke-dashoffset: 0pt; stroke-opacity: 1;" id="path4203" sodipodi:cx="14.683983" sodipodi:cy="53.402596" sodipodi:rx="1.6623377" sodipodi:ry="1.7316017" d="M 16.346321,53.402596 A 1.6623377,1.7316017 0 1 1 13.021645,53.402596 A 1.6623377,1.7316017 0 1 1 16.346321,53.402596 z" transform="matrix(1.05273, 0, 0, 1.01063, -2.0211, -21.6237)"/>
  <path sodipodi:type="arc" style="opacity: 1; fill: rgb(255, 255, 255); fill-opacity: 1; stroke: rgb(236, 236, 236); stroke-width: 0pt; stroke-linecap: butt; stroke-linejoin: round; stroke-miterlimit: 4; stroke-dasharray: none; stroke-dashoffset: 0pt; stroke-opacity: 1;" id="path4205" sodipodi:cx="14.683983" sodipodi:cy="53.402596" sodipodi:rx="1.6623377" sodipodi:ry="1.7316017" d="M 16.346321,53.402596 A 1.6623377,1.7316017 0 1 1 13.021645,53.402596 A 1.6623377,1.7316017 0 1 1 16.346321,53.402596 z" transform="matrix(1.05273, 0, 0, 1.01063, 15.849, -6.87043)"/>
  <path sodipodi:type="arc" style="opacity: 1; fill: rgb(255, 255, 255); fill-opacity: 1; stroke: rgb(236, 236, 236); stroke-width: 0pt; stroke-linecap: butt; stroke-linejoin: round; stroke-miterlimit: 4; stroke-dasharray: none; stroke-dashoffset: 0pt; stroke-opacity: 1;" id="path4207" sodipodi:cx="14.683983" sodipodi:cy="53.402596" sodipodi:rx="1.6623377" sodipodi:ry="1.7316017" d="M 16.346321,53.402596 A 1.6623377,1.7316017 0 1 1 13.021645,53.402596 A 1.6623377,1.7316017 0 1 1 16.346321,53.402596 z" transform="matrix(1.05273, 0, 0, 1.01063, 6.42911, -26.1258)"/>
  <path sodipodi:type="arc" style="opacity: 1; fill: rgb(255, 255, 255); fill-opacity: 1; stroke: rgb(236, 236, 236); stroke-width: 0pt; stroke-linecap: butt; stroke-linejoin: round; stroke-miterlimit: 4; stroke-dasharray: none; stroke-dashoffset: 0pt; stroke-opacity: 1;" id="path4209" sodipodi:cx="14.683983" sodipodi:cy="53.402596" sodipodi:rx="1.6623377" sodipodi:ry="1.7316017" d="M 16.346321,53.402596 A 1.6623377,1.7316017 0 1 1 13.021645,53.402596 A 1.6623377,1.7316017 0 1 1 16.346321,53.402596 z" transform="matrix(1.05273, 0, 0, 1.01063, 32.7495, -39.5631)"/>
  <path sodipodi:type="arc" style="opacity: 1; fill: rgb(255, 255, 255); fill-opacity: 1; stroke: rgb(236, 236, 236); stroke-width: 0pt; stroke-linecap: butt; stroke-linejoin: round; stroke-miterlimit: 4; stroke-dasharray: none; stroke-dashoffset: 0pt; stroke-opacity: 1;" id="path4211" sodipodi:cx="14.683983" sodipodi:cy="53.402596" sodipodi:rx="1.6623377" sodipodi:ry="1.7316017" d="M 16.346321,53.402596 A 1.6623377,1.7316017 0 1 1 13.021645,53.402596 A 1.6623377,1.7316017 0 1 1 16.346321,53.402596 z" transform="matrix(1.05273, 0, 0, 1.01063, 42.1694, -21.1388)"/>
  <path sodipodi:type="arc" style="opacity: 1; fill: rgb(255, 255, 255); fill-opacity: 1; stroke: rgb(236, 236, 236); stroke-width: 0pt; stroke-linecap: butt; stroke-linejoin: round; stroke-miterlimit: 4; stroke-dasharray: none; stroke-dashoffset: 0pt; stroke-opacity: 1;" id="path4213" sodipodi:cx="14.683983" sodipodi:cy="53.402596" sodipodi:rx="1.6623377" sodipodi:ry="1.7316017" d="M 16.346321,53.402596 A 1.6623377,1.7316017 0 1 1 13.021645,53.402596 A 1.6623377,1.7316017 0 1 1 16.346321,53.402596 z" transform="matrix(1.05273, 0, 0, 1.01063, 24.7148, -35.6843)"/>
  <path sodipodi:type="arc" style="opacity: 1; fill: rgb(255, 255, 255); fill-opacity: 1; stroke: rgb(236, 236, 236); stroke-width: 0pt; stroke-linecap: butt; stroke-linejoin: round; stroke-miterlimit: 4; stroke-dasharray: none; stroke-dashoffset: 0pt; stroke-opacity: 1;" id="path4215" sodipodi:cx="14.683983" sodipodi:cy="53.402596" sodipodi:rx="1.6623377" sodipodi:ry="1.7316017" d="M 16.346321,53.402596 A 1.6623377,1.7316017 0 1 1 13.021645,53.402596 A 1.6623377,1.7316017 0 1 1 16.346321,53.402596 z" transform="matrix(1.05273, 0, 0, 1.01063, 34.1347, -16.8445)"/>
  <path style="fill: rgb(185, 91, 81); fill-opacity: 0.878431; fill-rule: evenodd; stroke: rgb(15, 2, 2); stroke-width: 1px; stroke-linecap: butt; stroke-linejoin: round; stroke-opacity: 1;" d="M 45.160174,58.181818 L 19.948052,10.38961 L 32,4.1558442 L 56.935065,52.08658 L 45.160174,58.181818 z" id="path4169"/>
</svg>